<svg width="213" height="164" fill="none" xmlns="http://www.w3.org/2000/svg"><path fill-rule="evenodd" clip-rule="evenodd" d="M122.887 43.484C105.462 26.977 84.323 12.617 60.782 8.013c-8.565-1.677-17-1.338-25.639-1.068a1.103 1.103 0 00.07 2.203c8.473-.263 16.746-.615 25.145 1.029 23.207 4.538 44.014 18.761 61.166 35.051l-.229.284c-2.499 3.078-2.899 8.44-1.782 14.478 1.599 8.655 6.196 18.727 11.1 24.924 2.205 2.784 4.495 4.792 6.597 5.647 1.639.667 3.196.676 4.593-.038 2.974-1.523 3.879-5.237 3.128-10.027-1.568-10.017-10.059-24.93-15.365-30.405a219.398 219.398 0 00-5.089-5.084c.425-.553.843-1.093 1.273-1.6 1.23-1.44 2.584-2.625 4.714-3.115 3.319-.76 6.875-.093 10.335 1.261 5.397 2.116 10.552 5.922 14.273 9.002 20.723 17.15 27.392 39.055 28.618 59.578 1.234 20.727-3.06 40.069-4.206 51.85a1.102 1.102 0 102.194.212c1.154-11.857 5.456-31.329 4.21-52.194-1.253-21.069-8.138-43.538-29.408-61.145-3.876-3.208-9.255-7.153-14.876-9.356-3.891-1.523-7.898-2.212-11.634-1.356-3.352.769-5.169 2.884-7.083 5.34zm.233 3.278l-.115.14c-2.185 2.69-2.3 7.407-1.323 12.686 1.536 8.317 5.946 18 10.662 23.957 1.616 2.043 3.259 3.64 4.836 4.55 1.302.748 2.533 1.02 3.616.464 1.027-.522 1.629-1.457 1.934-2.652.361-1.403.326-3.134.024-5.069-1.507-9.625-9.672-23.952-14.771-29.213a226.39 226.39 0 00-4.863-4.863z" fill="#8DD1D1"/><path fill-rule="evenodd" clip-rule="evenodd" d="M31.557 9.517c.215-.433.68-.924 1.187-1.446 1.205-1.246 2.78-2.494 3.5-3.113.46-.4.51-1.095.113-1.556a1.102 1.102 0 00-1.556-.114c-.88.76-2.976 2.427-4.265 3.93-.691.806-1.15 1.6-1.264 2.227-.196 1.068.456 1.943 2.106 2.343 1.953.473 5.816.465 8.52 2.442a1.102 1.102 0 101.3-1.782c-2.578-1.883-6.074-2.246-8.391-2.627a11.13 11.13 0 01-1.25-.304z" fill="#8DD1D1"/></svg>