<svg width="80" height="85" fill="none" xmlns="http://www.w3.org/2000/svg"><path fill-rule="evenodd" clip-rule="evenodd" d="M23.607 72.367c-5.99-2.88-12.432-4.936-18.69-6.882-1.348-.415-2.796.316-3.132 1.646-.435 1.313.333 2.72 1.583 3.117 6.066 1.881 12.318 3.852 18.025 6.614 1.215.595 2.728.078 3.353-1.16.624-1.238.076-2.74-1.139-3.335zM47.133 50.66C38.815 38.52 28.982 27.485 20.91 15.103c-.711-1.15-2.277-1.48-3.426-.727-1.148.754-1.521 2.296-.711 3.463 8.067 12.413 17.895 23.476 26.208 35.646a2.58 2.58 0 003.54.655c1.054-.796 1.427-2.339.613-3.482zm26.029-36.464l-2.248 17.931c-.24 1.357.758 2.614 2.148 2.79 1.39.177 2.579-.805 2.818-2.163l2.253-17.957a2.563 2.563 0 00-2.25-2.793c-1.292-.152-2.58.819-2.721 2.192z" fill="#8DD1D1"/></svg>