<svg width="166" height="23" fill="none" xmlns="http://www.w3.org/2000/svg"><path fill-rule="evenodd" clip-rule="evenodd" d="M44.245 13.545c-7.132 2.078-15.366 4.147-23.287 4.663-6.77.44-13.31-.244-18.663-3.157a1.551 1.551 0 00-2.107.63 1.569 1.569 0 00.627 2.12c5.839 3.177 12.959 4.008 20.344 3.527 8.063-.526 16.446-2.608 23.72-4.716.845 1.719 2.593 3.321 5.672 4.504 4.73 1.816 11.187 1.794 17.99.77 9.866-1.484 20.48-5.022 27.303-7.537a27.5 27.5 0 001.207-.48c.155.345.33.685.522 1.019 1.674 2.91 4.635 5.263 7.651 6.103 19.135 5.329 41.466-1.056 59.648-6.252a1.572 1.572 0 001.07-1.931 1.556 1.556 0 00-1.922-1.076c-17.672 5.051-39.369 11.424-57.968 6.246-2.289-.638-4.516-2.446-5.785-4.655a9.096 9.096 0 01-.386-.754c2.507-1.249 5.455-2.99 7.042-4.853 1.629-1.91 2.034-3.95.615-5.875-1.219-1.646-3.066-1.786-4.988-.933-2.072.914-4.205 3.051-4.896 4.054-1.294 1.874-1.704 3.906-1.468 5.888-.61.258-1.105.451-1.41.564-6.675 2.458-17.048 5.929-26.696 7.38-6.207.934-12.104 1.059-16.42-.599-1.84-.707-3.056-1.532-3.716-2.49 1.302-.391 2.558-.777 3.758-1.144 2.373-.727 7.314-1.931 10.845-4.077 2.807-1.705 4.71-4.026 4.6-6.935C67.09 2.055 66.23 1.058 64.86.5c-2.045-.835-5.584-.431-6.901-.15-3.996.852-9.33 4.377-11.968 8.35-1.053 1.585-1.68 3.243-1.746 4.846zm3.282-.977c1.13-.341 2.22-.677 3.268-.998 2.215-.68 6.846-1.758 10.142-3.761 1.746-1.06 3.17-2.331 3.102-4.14-.006-.141-.145-.181-.267-.238a2.914 2.914 0 00-.638-.197c-1.566-.321-3.67-.01-4.53.173-3.353.715-7.813 3.695-10.027 7.028-.468.704-.84 1.421-1.05 2.133zM99.26 9.41c1.462-.756 2.992-1.67 4.199-2.665.641-.528 1.182-1.072 1.524-1.636.286-.466.398-.944.056-1.405-.137-.187-.342-.191-.554-.156a2.849 2.849 0 00-.684.22c-1.518.672-3.085 2.241-3.589 2.977a5.316 5.316 0 00-.952 2.665z" fill="url(#paint0_linear_16_312)"/><defs><linearGradient id="paint0_linear_16_312" x1="0" y1="11.5" x2="166" y2="11.5" gradientUnits="userSpaceOnUse"><stop stop-color="#8DD1D1"/><stop offset="1" stop-color="#8DD1D1"/></linearGradient></defs></svg>