<svg width="156" height="93" fill="none" xmlns="http://www.w3.org/2000/svg"><path fill-rule="evenodd" clip-rule="evenodd" d="M112.478 88.475c13.929.336 28.162-.337 41.48 4.436a1.53 1.53 0 001.953-.924 1.536 1.536 0 00-.922-1.958c-13.629-4.883-28.186-4.271-42.437-4.614a1.526 1.526 0 00-1.564 1.493 1.53 1.53 0 001.49 1.567zm-1.251-20.265c4.341-4.004 9.08-7.003 14.807-8.49a1.534 1.534 0 001.099-1.864 1.531 1.531 0 00-1.862-1.097c-6.228 1.615-11.388 4.848-16.108 9.198a1.527 1.527 0 102.064 2.252zM99.149 24.503c1.991-6.838 5.911-12.188 11.919-16.05a1.53 1.53 0 00-1.649-2.576c-6.649 4.278-10.997 10.198-13.201 17.769-.238.81.232 1.66 1.038 1.897.812.237 1.66-.23 1.893-1.04z" fill="#8DD1D1"/><path fill-rule="evenodd" clip-rule="evenodd" d="M30.546 15.223a29.012 29.012 0 00-3.15 4.505c-.404.713-1.112 2.23-1.222 3.53-.122 1.386.348 2.554 1.557 3.17 1.606.816 2.888.731 3.877.237.953-.474 1.698-1.406 2.168-2.655.898-2.389.763-6.039.293-8.122a29.541 29.541 0 014.134-3.546c11.052-7.848 27.264-4.954 39.739 6.78 4.366 4.108 6.466 12.737 7.56 22.046 1.703 14.495.732 30.684.598 35.427-.03 1.172.08 1.867.14 2.006.287.683.794.86 1.148.927.513.092.922-.006 1.252-.177.446-.235.812-.649.983-1.287.092-.352.116-.843.104-1.366-.012-.363-.086-.76-.012-1.02.476-1.666 1.05-3.292 1.612-4.93 1.874-5.507 4.298-10.668 6.991-15.822 8.555-16.378 16.829-33.682 30.855-46.16.629-.56.69-1.528.128-2.16a1.526 1.526 0 00-2.156-.128c-14.306 12.724-22.806 30.327-31.532 47.03-2.29 4.384-4.39 8.774-6.136 13.367.176-8.124.11-19.37-1.374-29.32-1.32-8.849-3.829-16.67-8.073-20.663C66.365 4.037 48.54 1.248 36.438 9.846a32.92 32.92 0 00-3.675 3.03C26.43 1.418 12.875-3.175.894 2.306a1.532 1.532 0 00-.757 2.026 1.532 1.532 0 002.028.757C12.96.15 25.203 4.557 30.546 15.223zm.885 3.836c-.494.7-.952 1.426-1.38 2.176-.226.403-.616 1.177-.781 1.934a3.45 3.45 0 00-.043.584c.421.208.751.308 1.02.173.336-.166.507-.558.672-.995.415-1.098.549-2.553.512-3.872z" fill="#8DD1D1"/></svg>